<svg width="55" height="39" viewBox="0 0 55 39" fill="none" xmlns="http://www.w3.org/2000/svg">
<path d="M23.9534 25.3726L17 32H20.0207L25.6062 26.9652C27.5212 25.4034 29.5959 26.3145 30.3938 26.9652L35.7513 32H39L31.5337 25.1157C28.2964 22.9785 25.1313 24.3964 23.9534 25.3726Z" fill="white" stroke="white"/>
<path d="M32.0466 18.6274L39 12L35.9793 12L30.3938 17.0348C28.4788 18.5966 26.4041 17.6855 25.6062 17.0348L20.2487 12L17 12L24.4663 18.8843C27.7036 21.0215 30.8687 19.6036 32.0466 18.6274Z" fill="white" stroke="white"/>
<path d="M6.72 19.608C6.72 20.3973 6.60267 20.984 6.368 21.368C6.13333 21.752 5.74933 22.04 5.216 22.232C5.74933 22.424 6.13333 22.712 6.368 23.096C6.60267 23.48 6.72 24.0667 6.72 24.856V32.76C6.72 34.4667 7.53067 35.32 9.152 35.32H10.016V37.208H8.832C5.90933 37.208 4.448 35.7893 4.448 32.952V24.824C4.448 23.736 3.968 23.192 3.008 23.192H1.92V21.272H3.008C3.968 21.272 4.448 20.728 4.448 19.64V11.512C4.448 8.67467 5.90933 7.256 8.832 7.256H10.016V9.144H9.152C7.53067 9.144 6.72 9.99733 6.72 11.704V19.608ZM52.9555 21.272V23.192H51.8675C50.9075 23.192 50.4275 23.736 50.4275 24.824V32.952C50.4275 35.7893 48.9768 37.208 46.0755 37.208H44.8595V35.32H45.7235C47.3448 35.32 48.1555 34.4667 48.1555 32.76V24.856C48.1555 24.0667 48.2728 23.48 48.5075 23.096C48.7422 22.712 49.1262 22.424 49.6595 22.232C49.1262 22.04 48.7422 21.752 48.5075 21.368C48.2728 20.984 48.1555 20.3973 48.1555 19.608V11.704C48.1555 9.99733 47.3448 9.144 45.7235 9.144H44.8595V7.256H46.0755C48.9768 7.256 50.4275 8.67467 50.4275 11.512V19.64C50.4275 20.728 50.9075 21.272 51.8675 21.272H52.9555Z" fill="white"/>
</svg>
